<mxfile host="app.diagrams.net" modified="2023-06-20T17:14:51.058Z" agent="Mozilla/5.0 (X11; Ubuntu; Linux x86_64; rv:109.0) Gecko/20100101 Firefox/113.0" etag="UHaHjNK6uTNBTRkbEAls" version="21.4.0">
  <diagram name="Page-1" id="41eJinqUWYjnlr9wfgqC">
    <mxGraphModel dx="2706" dy="2413" grid="1" gridSize="10" guides="1" tooltips="1" connect="1" arrows="1" fold="1" page="1" pageScale="1" pageWidth="827" pageHeight="1169" math="0" shadow="0">
      <root>
        <mxCell id="0" />
        <mxCell id="1" parent="0" />
        <mxCell id="LUx8euQgHhPjClRerNv8-41" value="" style="rounded=0;whiteSpace=wrap;html=1;fillColor=#333333;" vertex="1" parent="1">
          <mxGeometry x="-460" y="-80" width="1550" height="750" as="geometry" />
        </mxCell>
        <mxCell id="LUx8euQgHhPjClRerNv8-16" style="edgeStyle=orthogonalEdgeStyle;rounded=0;orthogonalLoop=1;jettySize=auto;html=1;exitX=0.5;exitY=0;exitDx=0;exitDy=0;entryX=0;entryY=0.5;entryDx=0;entryDy=0;fillColor=#60a917;strokeColor=#2D7600;strokeWidth=3;" edge="1" parent="1" source="LUx8euQgHhPjClRerNv8-2" target="LUx8euQgHhPjClRerNv8-14">
          <mxGeometry relative="1" as="geometry" />
        </mxCell>
        <mxCell id="LUx8euQgHhPjClRerNv8-2" value="" style="shape=image;verticalLabelPosition=bottom;labelBackgroundColor=default;verticalAlign=top;aspect=fixed;imageAspect=0;image=data:image/png,iVBORw0KGgoAAAANSUhEUgAAASwAAACoCAMAAABt9SM9AAAA81BMVEX+ACTu9PDt9fD/ACPt9e/t9/L9ACX0AAD3AAD9ACDzu7zv9O/20dHu9PL/ABf/ABTuABD0NTzutbT0+/focnjuChz429v57+vvAAD65OPx/PjxfYj9ABvsECT46OT7z87kDyTtnqDlAAD59/TqjpPvc3f/AA7yAArxrrPgAADmSFPwJDPuVFn2w8P9AAD47Ovwi43sN0PvR1H1q6vnWF/odHzpKTP708/vpKfsiYvSV1nrPkjiKTXrZm7vXmLsY2nsgIH0xszyoKX4ITD0fX7ianT1mZjmnqbmUFns09PjXmHlkpTofob1jIzvIS3nKjriqaxAWmfXAAARkElEQVR4nO1cDXvauJY2kmUjjD8SBTCqgCQGmykhEJJQspk0mUxvbu9tb7L//9fsOfIHhLSdmd29ZdlHb9sEbNmg1+ccvedIqmUZGBgYGBgYGBgYGBgYGBgYGBgYGBgYGBgYGBgYGBgYGBgYGBgYGBgYGBgYGBgYGBgYGBgYGBgYGBgYGBgYGBgYGPy/A/2TZynnP266t6AWdSgP65nSPaT5MYvCP+dVK4tn9Qop547lwJWWFbrwPsN30Myx8Fa958gNlb7e4W59C2pfmdTfW2XLk/Z4dJClAS9POM6WJVHaumxUOBktXaALOFRzfP8YUmALCHUvhoPubNYdnCwyBQ34S2Mb77Kf3cv/HSAd0L/LmfSFTNqXRy9xChaGVgU/nFdNaavLKgg5G08UHs4Opcdk8xyZc4KXRiIZYfBXJtNFaDlqIdhryHF9N539n8KxVLxoJMKu1WrEZiIBwkZAWMCdN22RrNoaTHYXAdwAyCI10jzHu4VXHXxT8zzbswlLrl1LLRLibVxGakDW25vvAWgQ3/+WQP8QPvyDHjJtYZM4VHzbDTVZBK2DEKCX9Y/Ba7NDRnymyQquEuYVTYAh4ovrFMgqTYrU9tCyMFjjs+XB6agtmF/bBnhZ0l6NlvFGDCssy/a708Hgw0z4tleTq5RqsmqsWYdRYjIDNj0mZh8+dAWDBnbyPrwYlOj4bfz1Yb5nMQtGLp62bqBLb5gqvEVb2PhoklUOCWSBCYovrluPo2ECVLBZa00WpW6DMbiwf3Qax6f3XYm0NyPuxhq//EdbXuNrd69GQ4pCqL58hPgCvffeWlbulECBEGLqVpcBWeBZJ6mDg8IYrIyIM7UmS92Kmg9c/ZoiGWGvzdAR74Lcih8T4Yt3we56/d+EQ5V7MYYB0CaeXSPfMS3bxmjMmptkMY/kZDnqowCmxV1F1rkVnEjk7yhFL+dO8D6BFqyRURRfvT6zbfkucPJxdm9AVXYGAyDTNBG/Zn/HE3XI3yKr5gFZKDiQrFpNbpIVgynVWDfTggv+ugM80QdPpZQCWdAcyNJCdYe9/5PA5wnPOIjuBwn7nkG9ifWvyIKLGFoW5fUVkiVueUUWbyV2zRYrt9Sy4Q0oEiIucFAFsogma0d9/8vQoSNsfWoLn3zfml7D27YsGwO867ZugBnitzO6JutCEJ/IB1W2B+ODO8iPCpPFfSMLAkna0wOg5/0hS98li3Vh9G+CdMD4dA/5X0mWei9Qcd5VZPFbeCq+HO0lWSpdnswk9BfkIvmTdL0lC7SBzVAi2L64yawNy3qPBMp7nQNhezS1mi+P9pEsyAA78O1hhAKmvD8ZsrztmEVqebQjImlepVh2qMhaCNu35SdVhm84AO3R+qi1Z2S540TqjKb2I6PCWIZElm3ekIXyHi1LfDk+jV26aVmTBA1pGOhaBPxRIwH3ASkGlO4ZWdn0e2J905CALYbmUw4Ab9yQ2P02wsNfjcyhG9KhDzkiGbi6zgV/z8c4GibPmDHtFVnwnB+k/UOj0iAeJDkbsuINWZDu6NxlIEGsJxfK4ZosrDrUGwy0AxzLm/NWH0Ij5Duou/aNrNuE/EB/Vmy1j88gSf4BWSBKQUPNJbGJnIcWXSv4kbRB1DdcbqEnuicQwzz5FOqa2T6RBd/+tPvHfghO+CFedkhlWttkQVTSCl69dGykKNusOuhPIGIVhUEQxjcJJgCzJbf2L8BbdexUFZnWpgRaQFTk2H77dLPGt02WjbkhUp81QSd4CchzIKumLQtMC4KUZ8vu02g0bwrPBo06TPNrMd3x8txwHxBcizVJG9KBeO2VKMOUx7qn9SnzvzUaciDLt/NEmoZfhQ2K80uKlVKQqkgWdcfoiB4WKwSDrNMTgyjPfcCy4AyQtSc5NA7tdk6C7ZGCDg9T39Pemhy783y+guDtfccNPU0W+NVBAqf9dqwVPNFkOTxqSB9vgh8Bp2WzV0b7MpHeVe//IqiuCmgGfFImh5qsOO4X5VI4nlykYIKlDW6QRSs31BM/2QA5ShYB1uBt0sS6OufRMJFYIsVkSCaXJVfaDRnZH8ui4aogC+SQWFf8SJLFv62jlDgLQXmXp9dkgcxs9dG/cDSk1Ann+EY+Ilnwu4kVP2iTXqz6QgopxWy8qKqsKEpFkuxP8Y+qe1lGqcavH0p67JqYZCtZhXt5H/Q6FZUVWVosHSB+L+YxHP1uwvlEv+D51Cwk69Hi6Obm6KyVqeJK/WOC+H39bd5WtZw/mPH+qeDHSc4QEWfnh2JtS7fhp2KCB5JGSO6yJvuWgkc3A2AnHSyM5e8opfpFzgkSQHmQhkFZaHcKWmjRiGqUzNANWHpSG4wWPwDLqVTfT896/2w4Vlyak7g7H26QdZWeiWqclE8qa1Re+ZqsvCDMuQrTQOl5n6ofYFIFe2iEur+U8+pYieoQ3olvwcqfAtxJs821sTk7WjYRnhQMyYf0nxtk/S08nlXv5CoMnyrh9ZosfNA8jF7uvg6/fnzOqmIMQh3k+F0vmNBmclCiZIu2Ng7R3w+2kBOtshb48VD7MViVOmjthK3gqiTrKXveIGuYRsVACYM+G9dBXH7bsvAevWEb4jnE9mR6l/Hc8QDqfSI09AyqtojjjijwuYjr4Y3IW8l2xMNr8RqdJVa+stvxTObvx7ehpUaHj9Eu/JBGnYKsyyCeVbKUrdJ6UZJAJTFwIY38dsyyrOy+K1FuYl2MicFLUJpWCpkg5M026baK6AVkgbiAzMmGITNvFE8xicA5n3ZkhUcohfP3OpJ2MDPKQHvoqXEbJy6HmZr//XEXpuVQt+CENTJXqwX9NcVhmhYOimS143wq5i1ZkAfOYYyARphpg1QT3VuVR2oKtklw9p8kWCrV5f7jTi5tCdxSX897syLjArIoklXLy0F2SRaF7FtX0/IJTSaG9d6nW/Xt/vybyVJzifzY7Lc4RLWQ2w+bguPl2gGEPenG1G1+iyyKxsAgUWKgogRoTPDZbk+HYUthmVTfQY7dYnEOkFU6+lL3V92D9dk4U1mQRXAWtkKyVOoOS2A1mXQ6IG4hKiQLpfh3e/RvBQQWbU3wXdUnWboa+xDziyJKgYN1HJqOxVsFD6H3peOjD3XGD6OHRoK8lYs8Uj3BCoqDgB/mUrQgi/nEFg8hMppewrPyfQyMFVnJw6hCj2Zg735NjD8vl5/HPmSi7DDjO5pmBA2uTYb0owDVQu4mkBzSVhXCmHfAg5tSpG6mO1Z9zOAS1n6pB0HoXnXgHUkmHAvxLuTYftLoQz4kP+YSKyfLnibQZb0GgGZYw+/8A+c81mQt06AE5ZMO2v3UVSBP4rFkjM3i3UhVrPQ2MBhAStfacBIy+4VmheNBii0WnJ+Jt2Q50BWGnjfJyUiPcJWavAngvupzAned/fIo4frDOi1jFujffw7AQHABiaXHDdb4ImobltUppL+lJ4DRwIm4SXW1ctFF7Gx1qhN+1QqKiAMedctZaSyT66JUTUcxcRXwZUKKiLbhhsFX1PnyOszdgrcuD8eHhw8Bpp0wQPiscY7ahPVbOsoUZN3NpWeLj8rCbLLmiaMnthngOwdKT+9rxvgFfi6bxjrE8SiKsmhHEQuENT/AWWOvBtZz3mBlST65VeG8cjxxFNJWG8wByPLJOpGmaQOcjHVaubTCLPD8PD1H8YBjob4Q3ByYuVcbZI1w9lCuUouCcICTPeDVW5MFbqgQmB5huq3nbqeL2FUKKaTUqqTcTwWqaugVjlriToExEDs3LfFZBffa8QjQI55CGqEg8sHJpGy6hR/QrI3j32+uJgqjCgxUChctWwoDIEt6FjwB3yuCfkkWVoZQPPDJDIfBGASZXZFVS57+pTF/h9IzG8OwA09EdA8fFlGq8gxoV46YXUr0N3Edbsh0ea/4r7leJUSXQtNHkSSz9nQ1v6tUDo4OwMQhLtvjz2clFspx9CoRtMHgGjzV77cq6QBknV/CgJhcKCx6+PLL+Ynw1m4IH15gdoornydd6emVYaBIu6sLd1c8aSBFuNblSwjBtNQO8kHpKihaEpD0GFp8MXo/yWI3BOupFv6hVCXyBMO7uoPu6aRHwlBKMf7Zch4AiUlO/iZZd/CR4iasXwI54j2QVY2GNV3f9rUu7Z9aqE6WTTB4T9dZga+TjG8vmv6J4C8dYsNYvkppNIO45GPaIp8Cqz7tdJuNLw8fb5ctaAcxhOMiNGoVARY8DwMSkZdIBFgJingQ7Kx9StVVApoe9KOD9VOwm0P0Q1qQFUYd5ompG4FwYN1IJwsbCh6eUQ3+sP6pjlA8O2omQrI8ERLTjO6uyoUawdcDlxU3JQPjAG9rXnPKl8+ZW0dL0tUTiiEpqLtua1KaFs7eezVwQ+AQyGI+3gjJskLwQh9e1KH9DS6S66OuLy0rwIyQzFqLBKg9rG+R5fdn/dms35+1I21ClAbu7fywmwhwXh/cNtwdWzRdSfS2gUvVY3M8PDp7eY4ypYtPevgGkoIwzbLWweL+5nHa7A+qsnK9iaMhpMBAxFm72Wx2dd53il4IbtOZ4lLkf2DEwYWka7KCBwmR8GwuiS/vgi2yOre9Z0Cv1+O4KJhjEUyFWXRx08YV9XYn4rso/mk46n7WbFzOMaoEdbSkvMaJ1qKU68atl89Hw8tpuwvJmd4asdZZkK14oDoulF6A69brNxjWBy6OhWituGAkX8sESQrYZkmWVk/sPwfgbJ0e3yIrAZ1V1lxhwET09ArhMBrjlK38vLu1zTg3nGWZ3oREq2P4g5+NhuNBe5YkELUxK9Ork/wNsiAPxiQXBHp+VYw1DDFOU5wt9HAZkwduqZXsDHRpRZYVt3F+DCsakPa8ISsviOric32AGfRTaOmtHxcJpD4wbu/MsqoybfWD5koGdCgMcCynCDpGMPv3cfa0mrDgELR8MK2jOqeOo85HCYHk5m9BhNOJtap4gBVEXP9XkqWsdOUTnWaJfwXbZEG6s169XG9IXSPS+8mCzzinnRz9X5zEzqaoB32t6vPlanqen6wTaSeE/BoGUPF4fOqeHg8TH+NzHFyhBhGHwxxf+noAqTtry1KYBfloRrf8jWUdF3sK4tjlkFDpW7XO09T9tY1VRrnYVdXhRwjmswSrVGAlkE2D9PFw0XdFlp5ryQZ66aBI2oN2Im1wPnkUhGNI/khnmaZhCqg3IKmxISkqpQNYRjQjTFeGIJS9JqvmN6vdKoOJeu7oODVrXF5OE7RX1o13zMu3kcWTq5vLQRdVDsPOoTLcsCyAWqIutXE3FIEcE+Tn2KURln3Yh0xP/sDIfy3QVyGuV2RRtyFxd4Ken90iy1tvrUteVDgUWDeFkUIwrBLaaJi7i1nfBQpCFabx6cvZw2rQT7Qy9F+5IbD1a1sU5WjwWCYOIw4+hkYzDMtlt0us/bCGu3ZDK/iEGlZvXtkmS5eyc7dPXjikY1jKx3ipn5Q4cXenSX+EvJYA+ZlSqRu/XM1X2sramxMWjmqddGS5ybJ77UIMOsT3YlGlkPUmHtAVMzwxCnA1V4LqTueMudDLyXq9aRMsi1rZdReyV+b7jEjRHu3HZjuO0jQ6OHuYq834Snk6eTdtg+Zuj0cttKZ8L/Blq2qijvDA9D3vjfEF1k1ppBsN8VbBJ71LuGWpj9vbgSdYBwxbd+NmvwPJ1/gu2pt1JHpVjFLhxveleusdaNdWr1Wv5zMJ+S7zbENnKzzggnbQO8mVnpLP8HWozTfAoyEH8bG109zVM0UOV3U36vUid5+22hVu+Spm6A1MegcepVUxuPxFX12cL+/Or9HLl/XR/HJ9uFjOsHFzfEDF7XBJxR5tHit6v12mpFsclr/W7Wi5pao8Uxx19LqPcgsdrc6sP9HJrysfwj6xZeXLNN4UdTd64Lxy0fWZTTMrj+v/9aGgcL3iZnus26SRvjlrYGBgYGBgYGBgYGBgYGBgYGBgYGBgYGBgYGBgYGBgYGBgYGBgYGBgYGBgYGBgYGBgYGBgYGBgYGBgYGBgYGDwV/FfslygfmwPX5YAAAAASUVORK5CYII=;" vertex="1" parent="1">
          <mxGeometry x="-320" y="360" width="214.29" height="120" as="geometry" />
        </mxCell>
        <mxCell id="LUx8euQgHhPjClRerNv8-3" value="&lt;div&gt;ORDINATEUR&lt;/div&gt;&lt;div&gt;OU&lt;/div&gt;&lt;div&gt;VM&lt;br&gt;&lt;/div&gt;" style="whiteSpace=wrap;html=1;aspect=fixed;fillColor=default;strokeColor=#3333FF;strokeWidth=3;" vertex="1" parent="1">
          <mxGeometry x="120" y="320" width="200" height="200" as="geometry" />
        </mxCell>
        <mxCell id="LUx8euQgHhPjClRerNv8-4" value="" style="endArrow=classic;html=1;rounded=0;entryX=1;entryY=0.5;entryDx=0;entryDy=0;exitX=0;exitY=0.5;exitDx=0;exitDy=0;fillColor=#60a917;strokeColor=#2D7600;strokeWidth=3;" edge="1" parent="1" source="LUx8euQgHhPjClRerNv8-3" target="LUx8euQgHhPjClRerNv8-2">
          <mxGeometry relative="1" as="geometry">
            <mxPoint x="330" y="510" as="sourcePoint" />
            <mxPoint x="490" y="510" as="targetPoint" />
          </mxGeometry>
        </mxCell>
        <mxCell id="LUx8euQgHhPjClRerNv8-5" value="1 - Requête API" style="edgeLabel;resizable=0;html=1;align=center;verticalAlign=middle;labelBorderColor=#66CC00;fontSize=16;spacing=6;" connectable="0" vertex="1" parent="LUx8euQgHhPjClRerNv8-4">
          <mxGeometry relative="1" as="geometry" />
        </mxCell>
        <mxCell id="LUx8euQgHhPjClRerNv8-10" value="&lt;div style=&quot;font-size: 16px;&quot;&gt;&lt;font style=&quot;font-size: 16px;&quot; color=&quot;#66cc00&quot;&gt;TEMPS 1- 2 : Requêtes API&lt;br&gt;&lt;/font&gt;&lt;/div&gt;&lt;div style=&quot;font-size: 16px;&quot;&gt;&lt;font style=&quot;font-size: 16px;&quot; color=&quot;#66cc00&quot;&gt;nbr de requêtes * temps d&#39;aller retour de l&#39;information&lt;/font&gt;&lt;/div&gt;&lt;div style=&quot;font-size: 16px;&quot;&gt;&lt;font style=&quot;font-size: 16px;&quot; color=&quot;#66cc00&quot;&gt;+ temps attente, pas de dépassement&lt;br&gt;&lt;/font&gt;&lt;/div&gt;" style="rounded=1;whiteSpace=wrap;html=1;fillColor=none;fontColor=#ffffff;strokeColor=#2D7600;strokeWidth=3;" vertex="1" parent="1">
          <mxGeometry x="-610" y="715" width="240" height="120" as="geometry" />
        </mxCell>
        <mxCell id="LUx8euQgHhPjClRerNv8-11" value="DATABASE DIGITALOCEAN" style="whiteSpace=wrap;html=1;aspect=fixed;strokeColor=#CC6600;strokeWidth=3;" vertex="1" parent="1">
          <mxGeometry x="720" y="290" width="260" height="260" as="geometry" />
        </mxCell>
        <mxCell id="LUx8euQgHhPjClRerNv8-14" value="&lt;font style=&quot;font-size: 16px;&quot;&gt;Stockage de l&#39;ordinateur ou de la VM&lt;/font&gt;" style="whiteSpace=wrap;html=1;aspect=fixed;fillColor=default;strokeColor=#CC6600;strokeWidth=3;" vertex="1" parent="1">
          <mxGeometry x="130" width="180" height="180" as="geometry" />
        </mxCell>
        <mxCell id="LUx8euQgHhPjClRerNv8-17" value="2 - Réponse Requête API&lt;div&gt;Contenant JSON&lt;br&gt;&lt;/div&gt;" style="edgeLabel;resizable=0;html=1;align=center;verticalAlign=middle;labelBorderColor=#66CC00;fontSize=16;spacing=6;" connectable="0" vertex="1" parent="1">
          <mxGeometry x="-70" y="90" as="geometry" />
        </mxCell>
        <mxCell id="LUx8euQgHhPjClRerNv8-18" value="" style="endArrow=classic;html=1;rounded=0;exitX=0.5;exitY=1;exitDx=0;exitDy=0;fillColor=#60a917;strokeColor=#e01b24;strokeWidth=3;entryX=0.5;entryY=0;entryDx=0;entryDy=0;" edge="1" parent="1" source="LUx8euQgHhPjClRerNv8-14" target="LUx8euQgHhPjClRerNv8-3">
          <mxGeometry relative="1" as="geometry">
            <mxPoint x="236" y="250" as="sourcePoint" />
            <mxPoint x="180" y="220" as="targetPoint" />
          </mxGeometry>
        </mxCell>
        <mxCell id="LUx8euQgHhPjClRerNv8-19" value="&lt;div&gt;3 - Charge les fichiers JSON dans&lt;/div&gt;&lt;div&gt;les paramêtres d&#39;un executemany&lt;/div&gt;&lt;div&gt;6 - Charge les infos de la table Game_stats&lt;/div&gt;&lt;div&gt;dans les param d&#39;un executemany&lt;/div&gt;" style="edgeLabel;resizable=0;html=1;align=center;verticalAlign=middle;labelBorderColor=#FF0000;fontSize=16;spacing=6;" connectable="0" vertex="1" parent="LUx8euQgHhPjClRerNv8-18">
          <mxGeometry relative="1" as="geometry" />
        </mxCell>
        <mxCell id="LUx8euQgHhPjClRerNv8-20" value="" style="endArrow=classic;html=1;rounded=0;entryX=0;entryY=0.5;entryDx=0;entryDy=0;exitX=1;exitY=0.5;exitDx=0;exitDy=0;fillColor=#60a917;strokeColor=#FFFF33;strokeWidth=3;" edge="1" parent="1" source="LUx8euQgHhPjClRerNv8-3" target="LUx8euQgHhPjClRerNv8-11">
          <mxGeometry relative="1" as="geometry">
            <mxPoint x="140" y="440" as="sourcePoint" />
            <mxPoint x="-86" y="440" as="targetPoint" />
          </mxGeometry>
        </mxCell>
        <mxCell id="LUx8euQgHhPjClRerNv8-21" value="&lt;div&gt;4 - Executemany de l&#39;insertion des&lt;/div&gt;&lt;div&gt;&lt;span style=&quot;white-space: pre;&quot;&gt;&#x9;&lt;/span&gt;JSON&lt;/div&gt;&lt;div&gt;5 - Executemany de l&#39;insertion des &lt;br&gt;&lt;/div&gt;&lt;div&gt;infos dans GameStat&lt;br&gt; &lt;/div&gt;" style="edgeLabel;resizable=0;html=1;align=center;verticalAlign=middle;labelBorderColor=#FFFF33;fontSize=16;spacing=6;" connectable="0" vertex="1" parent="LUx8euQgHhPjClRerNv8-20">
          <mxGeometry relative="1" as="geometry" />
        </mxCell>
        <mxCell id="LUx8euQgHhPjClRerNv8-22" value="&lt;div style=&quot;font-size: 16px;&quot;&gt;&lt;font style=&quot;font-size: 16px;&quot; color=&quot;#ff0000&quot;&gt;TEMPS 3 : Chargement JSON&lt;br&gt;&lt;/font&gt;&lt;/div&gt;&lt;div style=&quot;font-size: 16px;&quot;&gt;&lt;font style=&quot;font-size: 16px;&quot; color=&quot;#ff0000&quot;&gt;Négligeable.&lt;/font&gt;&lt;font color=&quot;#ff0000&quot;&gt;&lt;br&gt;&lt;/font&gt;&lt;/div&gt;" style="rounded=1;whiteSpace=wrap;html=1;fillColor=none;fontColor=#ffffff;strokeColor=#FF0000;strokeWidth=3;" vertex="1" parent="1">
          <mxGeometry x="-290" y="730" width="200" height="90" as="geometry" />
        </mxCell>
        <mxCell id="LUx8euQgHhPjClRerNv8-23" value="&lt;div&gt;&lt;font style=&quot;font-size: 16px;&quot; color=&quot;#ffff33&quot;&gt;Temps 4 : Executemany de l&#39;insertion des JSON&lt;/font&gt;&lt;/div&gt;&lt;div&gt;&lt;font style=&quot;font-size: 16px;&quot; color=&quot;#ffff33&quot;&gt;1 * temps aller-retour des infos &lt;br&gt;&lt;/font&gt;&lt;/div&gt;&lt;div&gt;&lt;font style=&quot;font-size: 16px;&quot; color=&quot;#ffff33&quot;&gt;+ temps d&#39;insertion des JSON (négligeable).&lt;br&gt;&lt;/font&gt;&lt;/div&gt;" style="rounded=1;whiteSpace=wrap;html=1;fillColor=none;fontColor=#ffffff;strokeColor=#FFFF33;strokeWidth=3;" vertex="1" parent="1">
          <mxGeometry x="-20" y="710" width="256" height="120" as="geometry" />
        </mxCell>
        <mxCell id="LUx8euQgHhPjClRerNv8-24" value="" style="endArrow=classic;html=1;rounded=0;entryX=1;entryY=0.5;entryDx=0;entryDy=0;exitX=-0.012;exitY=0.165;exitDx=0;exitDy=0;fillColor=#60a917;strokeColor=#FF66B3;strokeWidth=3;exitPerimeter=0;" edge="1" parent="1" source="LUx8euQgHhPjClRerNv8-11" target="LUx8euQgHhPjClRerNv8-14">
          <mxGeometry relative="1" as="geometry">
            <mxPoint x="720" y="470" as="sourcePoint" />
            <mxPoint x="494" y="470" as="targetPoint" />
            <Array as="points">
              <mxPoint x="480" y="330" />
              <mxPoint x="480" y="90" />
            </Array>
          </mxGeometry>
        </mxCell>
        <mxCell id="LUx8euQgHhPjClRerNv8-25" value="&lt;div&gt;5 - SELECT Des infos de la table &lt;br&gt;&lt;/div&gt;&lt;div&gt;Game_Stats&amp;nbsp; pour chaque JSON&lt;/div&gt;" style="edgeLabel;resizable=0;html=1;align=center;verticalAlign=middle;labelBorderColor=#FF66B3;fontSize=16;spacing=6;" connectable="0" vertex="1" parent="LUx8euQgHhPjClRerNv8-24">
          <mxGeometry relative="1" as="geometry">
            <mxPoint y="-84" as="offset" />
          </mxGeometry>
        </mxCell>
        <mxCell id="LUx8euQgHhPjClRerNv8-26" value="" style="shape=image;verticalLabelPosition=bottom;labelBackgroundColor=default;verticalAlign=top;aspect=fixed;imageAspect=0;image=data:image/png,iVBORw0KGgoAAAANSUhEUgAAAOEAAADhCAMAAAAJbSJIAAAAkFBMVEX///8AgP8Afv8Ad/8Aev8Adv8AfP8Aef8AdP/h7/+pyv8yjv/l8v/v9v+jyP9dov/b6/+vzv8gif8/lP+Ou/+OuP9np//G3f+ewf/u9P9WoP99sv9Lmv/P4//1+v/W5/+92P8Ag/9tqv+Rvv94sP+z0v8Ab/8zkP8bh/9EmP/B2//P3/8ji/+kxf8Aav+71f+ozcl0AAANdklEQVR4nO1diZbqKBA1LCEucd+XxLXVnnb8/7+bsGQnMSo2eW+4c868PhqBC0UVRYqi0TAwMDAwMDAwMDAwMDAwMDAwMDAwMDAwMPgfouNvNv9s/H7T1d0S5eifJr0zcDBkwNjBw95k4Hu626UG/m1tYYIAsFIAiGD7PPn+01lupxZGGW4pmhCP5k3drXwZ/SOAdiG7BMtz948cye+r85ieIEnQ6o8byMEQFgunBMjp9XW3+Rncn+RHYeNpR3e7q8I/46f5MY7OWHfTq+H4Gj8Kcpnpbv1j+Dv0Kj8K56ibwCOMXx9ADjSstcbxRvA9fgEAHuimUYy+VdUClgLXVlK3z5sIOchaNxU5Wo4afgHQTx2XcXN1BAPTeKmfC6mUYKBvdnUbxYFaggHFYb0oblUTDAR1pJtUEv33zWAeaK+bVgzPqmQmgI0QIQQhu5pVwXPdxCKMHht6G8Ld9Xjotk6n1mG13hFYsrkRwtnoZiYwfiSjCO+O27Tz587GbecxyXpom1m5lgFwN/GlP+x0rw/2cezlL3ORwnvAb3gq+XHz6JQ6W7Dsx7+FaVkTyeVRE91j6WoW6ZfTTYmMAnioUEKzzOWqgcn4KR4BMqq4tdQtcZuxboe4W9z/eFW5FL/YsQTXD7a+CoonofOMkvBGhQVpNorjwobZTzasR4oGUev61CsULvL09FkWdRbWOYiHolahF/TDuqAw0FPf8MooGkHnpY3dYYFGxfr8/XuBIoXdl4rrFExFVMWqfgZXeae/vJocYDnFi9JWP4FO0XLm5ZXWUq65tOmauVw14O3LJS7kg2jr2iKWL9jAO9u5RfZVWZufQlOuZ+BbC0k5wffKfBldaX/b7zkDcguL9OzYLKVC6rwXcuBJtddbkv865LPw3VXkXqpOkZIWP4mmtLfh9s1iN9LZrcVLPElXIODtcneyYomO/ZqVTCe8qWcopGKKqnvT6iBdspH72+XeZbKhxdOXSpPz/taYK53fOwUtfrYhMiEFPwpKlnYd+n0PqilbQiqYho1GTyb++Pcj+2YyrY5uCkqWrk3h77sXUmMB31c0gZcoLXmroOTn0JK2Q/4K5jl8y6SD/H4Y0U0qSyriJ32p/LcUlPwcDhDk4SwUlCzVYUpm+HMYLHt5LFXo9I50DPXtRqmHfAzr807/ffSlDH9/Hn4OUv9Jgy79HKRLby3u06cgt0N/QAB4ZUgdRO2vglXiLHU86xeN+TLku22a9oQ/AqnTAs66m6UQ8v2f2ga3v4CLTEY1LEs/Bl/6+kmDA1wB3q0rwT8PfiXf8ya/0uJn4Tooj0fH0wreW9QqIjqCK/WCHjCUv0Csqe/0CsOCAB0luyPq8QpDqamw6mrvX2AodX7raw1fYDiSh69ojfsqwfMM5wURSNriaRq3ZQLrrDZ4mqHc2GvVpMfkjqKTteXPMnSLAoWhPs9pldTt8F2G7QKGSl73vAilDAujhHW69yoZFkWXWkDnqRJ1DL12cZy3zpwgyhj6xYffbJ0RwsoYdktOpRCt6UDUMHTXJWdmiF6vQgnDOSk5vwY0xGAkoYBh1yo6Z8Gge0X6LsPmCpTys4iOUKgkUt7cswz785/ys4eKwnPewtGBMb6yAuV9wTzoPk3Hn817u7IsZ+EQak+rtGgm0DmO0lh3mnl0xl809V6FY86Brd/qJpjBFKWiFuyh9CnpuzMpYO2yRk3TWr9gElVmSKa/3P7HUMsQ1TBHjVKGqI57wCoZ1pKgSob1JKiQIdTqMRVDGcPa5vpSxBDA2oY/qWGIdvWNK1HC0KmfnY+hgCGyVIRRfwxvMwR1T3z5JkOAr/WdgRxv+RYAn+sfmze5rlOQm20pQ9tZ159fVeQZAgL39XxP/xoyDAN664H+TEkqETMENoGgd/qLwio5btC2bUQgJud9q+7K8yWc1tP96tCa/XFZ5g0MDAwMDAwMDAwMDAwMDDTDi0Nd8ltenVu3fKPoPv+uWlGzHyBT/Olw3K/mH77lsZuIXAKjVarBd4eQ0ti5M0ZO1fe1FwfCr2SQU6uNCaLbUhB/dD+4ldy/BAhak7hH2UclxzluNHKtauQSDcVPZHeZ7RLZ5oFz/VyAVyu7B42iBA0LFrr7Vfxb9i5GnPfw80KYRprhPhMWDJzXMvNWAGdIDz9Gd6HiUPDoB2UxrHMaO4l5Pod/IXRKj5ilGK5F1KVN6+V/fuxqQMawPVmtVtMzEtdNEHEAoOUgVCqEF4iwCAyhYyJ/2ySQZMhzdwN82c+7h57FwzQ/NYqUIQhfLW+OiHGEIhvMZjIulTzvtgpF+hmGB0YJjkL9cuI3Cn4ovzxjGOtDb8pqx0+nQ3qCIT9l6CRj1JfkgVJ7AxmGjcaEVoak75u9zaywmyUM+76fsKYxQ5baNZPzu4dyn7nNrH71+n4/ZzvTtcSfRk/mGIoTVvSv+Xk0akexA61zYNEwOnqnYbt9oY1x2zRQNvhjPeJnI9vt9lAojNOa4ED5XI7NRLGMIUt8mruZg6VdjrXad89ysIOuidia+xXi4L9RMhfPYEQ/cy4T0RnN9XK5PLhTxJ68FzDcUjllhn5CAICiwGZ4PSyy9oHaJXSmuhgAm4rWRdzgBADgeTj9S2jtovPpEUN+XDs7FhtsxaH5nZG40wPAnZisXvzRJey0zS6uhWuOvhO06AdwhQnwUs7Qo79CdIwmKEpf1EzcQsW+ZwyhEM1hwpxShrPkpSPiJo+IIR1uyaFJ9jHvDT8ZJM1VrHeJ4yCAzSluneRjrMRMjinSkzJkdbHDxTFDcSsXIuHxjzTDcAyDNRhchQl47WAdaMc6MmJI57kkfTVNLc0zIos02ohwog6VVHZpFiCQMBvd5uOVrsVPMEThh3cpwykQH8UM91SybGt8P4mrfdIMe+s1m0b7/X4aPO/9IBp/972ZHekT/HxdyJDRl2SB2ISF8SmJLod7i50XIkEHnegfaHSandhageVndOmwwuNsM9vTb+1pxBCA+feWfUiTMUgY0oMirDcjhmz9ZvO45M4lL6WNrC4dEcCDD1jTYJIhb0SeIUtER1VNi9HiynwWiAUVSXoxBOJWmx7yEFkkzsji8tplxiZiyO9OZCsu6MoYHm3R7xFD9vIdCOXALsp7wLBxDc0KHRAmkymGkoTKi5AhfTA6VtlhasV3Er1CO1hceTEKYziYRDZF4WGeTKod4EzGkKZIZWMeMVyC5GkX+v0jhtR4bbffffYwS9QVMmRZdEneJWRSehHfO2lTeGALL39D4dMExjD08jyf1UInCc3wwhiGyb+pLJKTjCFtC5okGQ7DZjLQxJ6PGG6WiLmc1s7KMGRjIMk3cxOahmZRyiZNYk4MCL1YS6j64NklSdQiGEbhZrRfggfzDFmGYEYsYkgLiA8c0wSjDxgek4o8w5D2t50/stUWckITtGaPb6+zR2y4tZmmawkZht0zLmLIcsDCZpIhzWwU5xe5PxzDY/pQV5ohuxYjl/n4O7T4LQlDtmJKBs2x686mmVoqM6QDBlhjI4a0hjhVNxv9MobMUgGIg4UXyTPkijm7+cHSQ9H1EV1SZc9vL5nymcboncSNbwBDENZSlSFbA5NuiiHT0FGtl0e6lBYNzlSqm4NLjiFPlJQ51XRln9G6UspCgNafyyvIGnXltTzB0Fty77uRYjhjIiQGcUyKGIY2gHY5FIvHa1aXCrsQ2Oq4sS5LNyBURNzDjAfdQqBWNW6ke4hLFjr3BzxgGHrA/kosdr7TDPkyAx4CHb9ga4U8Q5xQRkx3Cw+znWco7rdGO7God8d8nSR+zs5thnd+jbFDF0nMGRDpL5s7h+kpOnWgsDq7B2PIdzH2Z0vsYoTOacyQ38SJ0G4nFqY5hszn2s1PrQ1X7mBJK9/yrskwbPBesiBYr8bHM+KbYeFVdDzLLmoFv+/TZRtuCdaQemKdebBapYtfJin2NHjKuw/BI4ZsJyr0HuJtr4RvccjsjeUY8hOziFBnia27APwZcuOVZ9iYihUyiKuNt2n48XwCdzYO98KYv2PZGCJ+svZrGxhQOlts2L6EtZQyjAFgOzILCYYBxdD22LaMYV90AbNUu7SrlWfYOGQudbTthCI5Jn0gYFF536TcIiZkHt8cjP5XiSFATjvhVScZNvyrQ4KRJs6eWYtbhmFj7tgRw74QvGCujSTzkBX3k+BoO9PUMi7uTgu2ueX0AYqf5m3ahDfRiloKGN6+sAAEl143FRS5ohvxMePOaTwZnxbMZDPi7ldyk3TT2wHofDEr4E4hRAiiY2OPEWKKK7erv10jyPoMW/usu+hfg69shPAlqt6bWJg+DtE+XC24S17LqtEL/qVHrfv/YuyEfT4JqH3dGt4ihJtbDXsL112EHkXciGW0Sg2+dxepHyzC591797alaiB4xJU9Sx+ftQ7jw0ka5N0cjPerbvqrTWs87qbe4yyCWr5TtVAkWrOo/NanD3dhz3EP5e+KzQ5Y2Ra48FFkHrDWtDifQPOLqiGnNzgN9kxB1OZOcGXgJhqEO1Gw5geUXsEqafFhDU+Sv4+tFe2+4onuxnwIrRF0qLWZ/M0HCTrNv5mdgYGBgYGBgYGBgYGBgYGBgYGBgYGBgYHBZ/EfnhzU2HzbFx0AAAAASUVORK5CYII=;" vertex="1" parent="1">
          <mxGeometry x="737.5" y="307.5" width="225" height="225" as="geometry" />
        </mxCell>
        <mxCell id="LUx8euQgHhPjClRerNv8-27" value="&lt;div&gt;&lt;font style=&quot;font-size: 16px;&quot; color=&quot;#ff66b3&quot;&gt;Temps 5 : SELECT des infos du JSON&lt;br&gt;&lt;/font&gt;&lt;/div&gt;&lt;div&gt;&lt;font style=&quot;font-size: 16px;&quot; color=&quot;#ff66b3&quot;&gt;nb de match * &lt;br&gt;&lt;/font&gt;&lt;/div&gt;&lt;div&gt;&lt;font style=&quot;font-size: 16px;&quot; color=&quot;#ff66b3&quot;&gt;(temps aller-retour des infos &lt;br&gt;&lt;/font&gt;&lt;/div&gt;&lt;div&gt;&lt;font style=&quot;font-size: 16px;&quot; color=&quot;#ff66b3&quot;&gt;+ temps de parcour du JSON (négligeable)).&lt;br&gt;&lt;/font&gt;&lt;/div&gt;" style="rounded=1;whiteSpace=wrap;html=1;fillColor=none;fontColor=#ffffff;strokeColor=#FF66B3;strokeWidth=3;" vertex="1" parent="1">
          <mxGeometry x="296.5" y="710" width="256" height="120" as="geometry" />
        </mxCell>
        <mxCell id="LUx8euQgHhPjClRerNv8-28" value="" style="shape=cross;whiteSpace=wrap;html=1;strokeColor=#0000FF;fillColor=#3333FF;" vertex="1" parent="1">
          <mxGeometry x="-360" y="750" width="50" height="50" as="geometry" />
        </mxCell>
        <mxCell id="LUx8euQgHhPjClRerNv8-29" value="" style="shape=cross;whiteSpace=wrap;html=1;strokeColor=#0000FF;fillColor=#3333FF;" vertex="1" parent="1">
          <mxGeometry x="570" y="740" width="50" height="50" as="geometry" />
        </mxCell>
        <mxCell id="LUx8euQgHhPjClRerNv8-30" value="" style="shape=cross;whiteSpace=wrap;html=1;strokeColor=#0000FF;fillColor=#3333FF;" vertex="1" parent="1">
          <mxGeometry x="240" y="740" width="50" height="50" as="geometry" />
        </mxCell>
        <mxCell id="LUx8euQgHhPjClRerNv8-31" value="" style="shape=cross;whiteSpace=wrap;html=1;strokeColor=#0000FF;fillColor=#3333FF;" vertex="1" parent="1">
          <mxGeometry x="-80" y="745" width="50" height="50" as="geometry" />
        </mxCell>
        <mxCell id="LUx8euQgHhPjClRerNv8-33" value="&lt;div style=&quot;font-size: 16px;&quot;&gt;&lt;font style=&quot;font-size: 16px;&quot; color=&quot;#ff0000&quot;&gt;TEMPS 6 : Chargement info JSON&lt;br&gt;&lt;/font&gt;&lt;/div&gt;&lt;div style=&quot;font-size: 16px;&quot;&gt;&lt;font style=&quot;font-size: 16px;&quot; color=&quot;#ff0000&quot;&gt;Négligeable.&lt;/font&gt;&lt;font color=&quot;#ff0000&quot;&gt;&lt;br&gt;&lt;/font&gt;&lt;/div&gt;" style="rounded=1;whiteSpace=wrap;html=1;fillColor=none;fontColor=#ffffff;strokeColor=#FF0000;strokeWidth=3;" vertex="1" parent="1">
          <mxGeometry x="640" y="715" width="200" height="90" as="geometry" />
        </mxCell>
        <mxCell id="LUx8euQgHhPjClRerNv8-34" value="&lt;div&gt;&lt;font style=&quot;font-size: 16px;&quot; color=&quot;#ffff33&quot;&gt;Temps 4 : Executemany de l&#39;insertion des infos JSON&lt;/font&gt;&lt;/div&gt;&lt;div&gt;&lt;font style=&quot;font-size: 16px;&quot; color=&quot;#ffff33&quot;&gt;1 * temps aller-retour des infos &lt;br&gt;&lt;/font&gt;&lt;/div&gt;&lt;div&gt;&lt;font style=&quot;font-size: 16px;&quot; color=&quot;#ffff33&quot;&gt;+ temps d&#39;insertion des JSON (négligeable).&lt;br&gt;&lt;/font&gt;&lt;/div&gt;" style="rounded=1;whiteSpace=wrap;html=1;fillColor=none;fontColor=#ffffff;strokeColor=#FFFF33;strokeWidth=3;" vertex="1" parent="1">
          <mxGeometry x="930" y="700" width="256" height="120" as="geometry" />
        </mxCell>
        <mxCell id="LUx8euQgHhPjClRerNv8-36" value="" style="shape=cross;whiteSpace=wrap;html=1;strokeColor=#0000FF;fillColor=#3333FF;" vertex="1" parent="1">
          <mxGeometry x="860" y="735" width="50" height="50" as="geometry" />
        </mxCell>
        <mxCell id="LUx8euQgHhPjClRerNv8-38" value="&lt;div style=&quot;font-size: 16px;&quot;&gt;&lt;font style=&quot;font-size: 16px;&quot;&gt;Soit n le nombre de Match que l&#39;on cherche à stocker et à extraire : &lt;br&gt;&lt;/font&gt;&lt;/div&gt;&lt;div style=&quot;font-size: 16px;&quot;&gt;&lt;font style=&quot;font-size: 16px;&quot;&gt;&lt;br&gt;&lt;/font&gt;&lt;/div&gt;&lt;div style=&quot;font-size: 16px;&quot;&gt;&lt;font style=&quot;font-size: 16px;&quot;&gt;Alors C = n * aller_retour_ApiRiot + temps_attente + aller_retour_DigitalOcean + n * aller_retour_DigitalOcean + aller_retour_DigitalOcean = &lt;font style=&quot;font-size: 16px;&quot; color=&quot;#ff0000&quot;&gt;(n + 2) * aller_retour_DigitalOcean + n * aller_retour_APIRiot + temps_attente&lt;/font&gt;&lt;font style=&quot;font-size: 16px;&quot;&gt;&lt;br&gt;&lt;/font&gt;&lt;/font&gt;&lt;/div&gt;" style="rounded=0;whiteSpace=wrap;html=1;" vertex="1" parent="1">
          <mxGeometry x="-610" y="850" width="1800" height="100" as="geometry" />
        </mxCell>
        <mxCell id="LUx8euQgHhPjClRerNv8-42" value="" style="rounded=0;whiteSpace=wrap;html=1;fillColor=#333333;" vertex="1" parent="1">
          <mxGeometry x="1400" y="-80" width="1550" height="750" as="geometry" />
        </mxCell>
        <mxCell id="LUx8euQgHhPjClRerNv8-43" style="edgeStyle=orthogonalEdgeStyle;rounded=0;orthogonalLoop=1;jettySize=auto;html=1;exitX=0.5;exitY=0;exitDx=0;exitDy=0;entryX=0;entryY=0.5;entryDx=0;entryDy=0;fillColor=#60a917;strokeColor=#2D7600;strokeWidth=3;" edge="1" parent="1" source="LUx8euQgHhPjClRerNv8-44" target="LUx8euQgHhPjClRerNv8-49">
          <mxGeometry relative="1" as="geometry" />
        </mxCell>
        <mxCell id="LUx8euQgHhPjClRerNv8-44" value="" style="shape=image;verticalLabelPosition=bottom;labelBackgroundColor=default;verticalAlign=top;aspect=fixed;imageAspect=0;image=data:image/png,iVBORw0KGgoAAAANSUhEUgAAASwAAACoCAMAAABt9SM9AAAA81BMVEX+ACTu9PDt9fD/ACPt9e/t9/L9ACX0AAD3AAD9ACDzu7zv9O/20dHu9PL/ABf/ABTuABD0NTzutbT0+/focnjuChz429v57+vvAAD65OPx/PjxfYj9ABvsECT46OT7z87kDyTtnqDlAAD59/TqjpPvc3f/AA7yAArxrrPgAADmSFPwJDPuVFn2w8P9AAD47Ovwi43sN0PvR1H1q6vnWF/odHzpKTP708/vpKfsiYvSV1nrPkjiKTXrZm7vXmLsY2nsgIH0xszyoKX4ITD0fX7ianT1mZjmnqbmUFns09PjXmHlkpTofob1jIzvIS3nKjriqaxAWmfXAAARkElEQVR4nO1cDXvauJY2kmUjjD8SBTCqgCQGmykhEJJQspk0mUxvbu9tb7L//9fsOfIHhLSdmd29ZdlHb9sEbNmg1+ccvedIqmUZGBgYGBgYGBgYGBgYGBgYGBgYGBgYGBgYGBgYGBgYGBgYGBgYGBgYGBgYGBgYGBgYGBgYGBgYGBgYGBgYGBgYGPy/A/2TZynnP266t6AWdSgP65nSPaT5MYvCP+dVK4tn9Qop547lwJWWFbrwPsN30Myx8Fa958gNlb7e4W59C2pfmdTfW2XLk/Z4dJClAS9POM6WJVHaumxUOBktXaALOFRzfP8YUmALCHUvhoPubNYdnCwyBQ34S2Mb77Kf3cv/HSAd0L/LmfSFTNqXRy9xChaGVgU/nFdNaavLKgg5G08UHs4Opcdk8xyZc4KXRiIZYfBXJtNFaDlqIdhryHF9N539n8KxVLxoJMKu1WrEZiIBwkZAWMCdN22RrNoaTHYXAdwAyCI10jzHu4VXHXxT8zzbswlLrl1LLRLibVxGakDW25vvAWgQ3/+WQP8QPvyDHjJtYZM4VHzbDTVZBK2DEKCX9Y/Ba7NDRnymyQquEuYVTYAh4ovrFMgqTYrU9tCyMFjjs+XB6agtmF/bBnhZ0l6NlvFGDCssy/a708Hgw0z4tleTq5RqsmqsWYdRYjIDNj0mZh8+dAWDBnbyPrwYlOj4bfz1Yb5nMQtGLp62bqBLb5gqvEVb2PhoklUOCWSBCYovrluPo2ECVLBZa00WpW6DMbiwf3Qax6f3XYm0NyPuxhq//EdbXuNrd69GQ4pCqL58hPgCvffeWlbulECBEGLqVpcBWeBZJ6mDg8IYrIyIM7UmS92Kmg9c/ZoiGWGvzdAR74Lcih8T4Yt3we56/d+EQ5V7MYYB0CaeXSPfMS3bxmjMmptkMY/kZDnqowCmxV1F1rkVnEjk7yhFL+dO8D6BFqyRURRfvT6zbfkucPJxdm9AVXYGAyDTNBG/Zn/HE3XI3yKr5gFZKDiQrFpNbpIVgynVWDfTggv+ugM80QdPpZQCWdAcyNJCdYe9/5PA5wnPOIjuBwn7nkG9ifWvyIKLGFoW5fUVkiVueUUWbyV2zRYrt9Sy4Q0oEiIucFAFsogma0d9/8vQoSNsfWoLn3zfml7D27YsGwO867ZugBnitzO6JutCEJ/IB1W2B+ODO8iPCpPFfSMLAkna0wOg5/0hS98li3Vh9G+CdMD4dA/5X0mWei9Qcd5VZPFbeCq+HO0lWSpdnswk9BfkIvmTdL0lC7SBzVAi2L64yawNy3qPBMp7nQNhezS1mi+P9pEsyAA78O1hhAKmvD8ZsrztmEVqebQjImlepVh2qMhaCNu35SdVhm84AO3R+qi1Z2S540TqjKb2I6PCWIZElm3ekIXyHi1LfDk+jV26aVmTBA1pGOhaBPxRIwH3ASkGlO4ZWdn0e2J905CALYbmUw4Ab9yQ2P02wsNfjcyhG9KhDzkiGbi6zgV/z8c4GibPmDHtFVnwnB+k/UOj0iAeJDkbsuINWZDu6NxlIEGsJxfK4ZosrDrUGwy0AxzLm/NWH0Ij5Duou/aNrNuE/EB/Vmy1j88gSf4BWSBKQUPNJbGJnIcWXSv4kbRB1DdcbqEnuicQwzz5FOqa2T6RBd/+tPvHfghO+CFedkhlWttkQVTSCl69dGykKNusOuhPIGIVhUEQxjcJJgCzJbf2L8BbdexUFZnWpgRaQFTk2H77dLPGt02WjbkhUp81QSd4CchzIKumLQtMC4KUZ8vu02g0bwrPBo06TPNrMd3x8txwHxBcizVJG9KBeO2VKMOUx7qn9SnzvzUaciDLt/NEmoZfhQ2K80uKlVKQqkgWdcfoiB4WKwSDrNMTgyjPfcCy4AyQtSc5NA7tdk6C7ZGCDg9T39Pemhy783y+guDtfccNPU0W+NVBAqf9dqwVPNFkOTxqSB9vgh8Bp2WzV0b7MpHeVe//IqiuCmgGfFImh5qsOO4X5VI4nlykYIKlDW6QRSs31BM/2QA5ShYB1uBt0sS6OufRMJFYIsVkSCaXJVfaDRnZH8ui4aogC+SQWFf8SJLFv62jlDgLQXmXp9dkgcxs9dG/cDSk1Ann+EY+Ilnwu4kVP2iTXqz6QgopxWy8qKqsKEpFkuxP8Y+qe1lGqcavH0p67JqYZCtZhXt5H/Q6FZUVWVosHSB+L+YxHP1uwvlEv+D51Cwk69Hi6Obm6KyVqeJK/WOC+H39bd5WtZw/mPH+qeDHSc4QEWfnh2JtS7fhp2KCB5JGSO6yJvuWgkc3A2AnHSyM5e8opfpFzgkSQHmQhkFZaHcKWmjRiGqUzNANWHpSG4wWPwDLqVTfT896/2w4Vlyak7g7H26QdZWeiWqclE8qa1Re+ZqsvCDMuQrTQOl5n6ofYFIFe2iEur+U8+pYieoQ3olvwcqfAtxJs821sTk7WjYRnhQMyYf0nxtk/S08nlXv5CoMnyrh9ZosfNA8jF7uvg6/fnzOqmIMQh3k+F0vmNBmclCiZIu2Ng7R3w+2kBOtshb48VD7MViVOmjthK3gqiTrKXveIGuYRsVACYM+G9dBXH7bsvAevWEb4jnE9mR6l/Hc8QDqfSI09AyqtojjjijwuYjr4Y3IW8l2xMNr8RqdJVa+stvxTObvx7ehpUaHj9Eu/JBGnYKsyyCeVbKUrdJ6UZJAJTFwIY38dsyyrOy+K1FuYl2MicFLUJpWCpkg5M026baK6AVkgbiAzMmGITNvFE8xicA5n3ZkhUcohfP3OpJ2MDPKQHvoqXEbJy6HmZr//XEXpuVQt+CENTJXqwX9NcVhmhYOimS143wq5i1ZkAfOYYyARphpg1QT3VuVR2oKtklw9p8kWCrV5f7jTi5tCdxSX897syLjArIoklXLy0F2SRaF7FtX0/IJTSaG9d6nW/Xt/vybyVJzifzY7Lc4RLWQ2w+bguPl2gGEPenG1G1+iyyKxsAgUWKgogRoTPDZbk+HYUthmVTfQY7dYnEOkFU6+lL3V92D9dk4U1mQRXAWtkKyVOoOS2A1mXQ6IG4hKiQLpfh3e/RvBQQWbU3wXdUnWboa+xDziyJKgYN1HJqOxVsFD6H3peOjD3XGD6OHRoK8lYs8Uj3BCoqDgB/mUrQgi/nEFg8hMppewrPyfQyMFVnJw6hCj2Zg735NjD8vl5/HPmSi7DDjO5pmBA2uTYb0owDVQu4mkBzSVhXCmHfAg5tSpG6mO1Z9zOAS1n6pB0HoXnXgHUkmHAvxLuTYftLoQz4kP+YSKyfLnibQZb0GgGZYw+/8A+c81mQt06AE5ZMO2v3UVSBP4rFkjM3i3UhVrPQ2MBhAStfacBIy+4VmheNBii0WnJ+Jt2Q50BWGnjfJyUiPcJWavAngvupzAned/fIo4frDOi1jFujffw7AQHABiaXHDdb4ImobltUppL+lJ4DRwIm4SXW1ctFF7Gx1qhN+1QqKiAMedctZaSyT66JUTUcxcRXwZUKKiLbhhsFX1PnyOszdgrcuD8eHhw8Bpp0wQPiscY7ahPVbOsoUZN3NpWeLj8rCbLLmiaMnthngOwdKT+9rxvgFfi6bxjrE8SiKsmhHEQuENT/AWWOvBtZz3mBlST65VeG8cjxxFNJWG8wByPLJOpGmaQOcjHVaubTCLPD8PD1H8YBjob4Q3ByYuVcbZI1w9lCuUouCcICTPeDVW5MFbqgQmB5huq3nbqeL2FUKKaTUqqTcTwWqaugVjlriToExEDs3LfFZBffa8QjQI55CGqEg8sHJpGy6hR/QrI3j32+uJgqjCgxUChctWwoDIEt6FjwB3yuCfkkWVoZQPPDJDIfBGASZXZFVS57+pTF/h9IzG8OwA09EdA8fFlGq8gxoV46YXUr0N3Edbsh0ea/4r7leJUSXQtNHkSSz9nQ1v6tUDo4OwMQhLtvjz2clFspx9CoRtMHgGjzV77cq6QBknV/CgJhcKCx6+PLL+Ynw1m4IH15gdoornydd6emVYaBIu6sLd1c8aSBFuNblSwjBtNQO8kHpKihaEpD0GFp8MXo/yWI3BOupFv6hVCXyBMO7uoPu6aRHwlBKMf7Zch4AiUlO/iZZd/CR4iasXwI54j2QVY2GNV3f9rUu7Z9aqE6WTTB4T9dZga+TjG8vmv6J4C8dYsNYvkppNIO45GPaIp8Cqz7tdJuNLw8fb5ctaAcxhOMiNGoVARY8DwMSkZdIBFgJingQ7Kx9StVVApoe9KOD9VOwm0P0Q1qQFUYd5ompG4FwYN1IJwsbCh6eUQ3+sP6pjlA8O2omQrI8ERLTjO6uyoUawdcDlxU3JQPjAG9rXnPKl8+ZW0dL0tUTiiEpqLtua1KaFs7eezVwQ+AQyGI+3gjJskLwQh9e1KH9DS6S66OuLy0rwIyQzFqLBKg9rG+R5fdn/dms35+1I21ClAbu7fywmwhwXh/cNtwdWzRdSfS2gUvVY3M8PDp7eY4ypYtPevgGkoIwzbLWweL+5nHa7A+qsnK9iaMhpMBAxFm72Wx2dd53il4IbtOZ4lLkf2DEwYWka7KCBwmR8GwuiS/vgi2yOre9Z0Cv1+O4KJhjEUyFWXRx08YV9XYn4rso/mk46n7WbFzOMaoEdbSkvMaJ1qKU68atl89Hw8tpuwvJmd4asdZZkK14oDoulF6A69brNxjWBy6OhWituGAkX8sESQrYZkmWVk/sPwfgbJ0e3yIrAZ1V1lxhwET09ArhMBrjlK38vLu1zTg3nGWZ3oREq2P4g5+NhuNBe5YkELUxK9Ork/wNsiAPxiQXBHp+VYw1DDFOU5wt9HAZkwduqZXsDHRpRZYVt3F+DCsakPa8ISsviOric32AGfRTaOmtHxcJpD4wbu/MsqoybfWD5koGdCgMcCynCDpGMPv3cfa0mrDgELR8MK2jOqeOo85HCYHk5m9BhNOJtap4gBVEXP9XkqWsdOUTnWaJfwXbZEG6s169XG9IXSPS+8mCzzinnRz9X5zEzqaoB32t6vPlanqen6wTaSeE/BoGUPF4fOqeHg8TH+NzHFyhBhGHwxxf+noAqTtry1KYBfloRrf8jWUdF3sK4tjlkFDpW7XO09T9tY1VRrnYVdXhRwjmswSrVGAlkE2D9PFw0XdFlp5ryQZ66aBI2oN2Im1wPnkUhGNI/khnmaZhCqg3IKmxISkqpQNYRjQjTFeGIJS9JqvmN6vdKoOJeu7oODVrXF5OE7RX1o13zMu3kcWTq5vLQRdVDsPOoTLcsCyAWqIutXE3FIEcE+Tn2KURln3Yh0xP/sDIfy3QVyGuV2RRtyFxd4Ken90iy1tvrUteVDgUWDeFkUIwrBLaaJi7i1nfBQpCFabx6cvZw2rQT7Qy9F+5IbD1a1sU5WjwWCYOIw4+hkYzDMtlt0us/bCGu3ZDK/iEGlZvXtkmS5eyc7dPXjikY1jKx3ipn5Q4cXenSX+EvJYA+ZlSqRu/XM1X2sramxMWjmqddGS5ybJ77UIMOsT3YlGlkPUmHtAVMzwxCnA1V4LqTueMudDLyXq9aRMsi1rZdReyV+b7jEjRHu3HZjuO0jQ6OHuYq834Snk6eTdtg+Zuj0cttKZ8L/Blq2qijvDA9D3vjfEF1k1ppBsN8VbBJ71LuGWpj9vbgSdYBwxbd+NmvwPJ1/gu2pt1JHpVjFLhxveleusdaNdWr1Wv5zMJ+S7zbENnKzzggnbQO8mVnpLP8HWozTfAoyEH8bG109zVM0UOV3U36vUid5+22hVu+Spm6A1MegcepVUxuPxFX12cL+/Or9HLl/XR/HJ9uFjOsHFzfEDF7XBJxR5tHit6v12mpFsclr/W7Wi5pao8Uxx19LqPcgsdrc6sP9HJrysfwj6xZeXLNN4UdTd64Lxy0fWZTTMrj+v/9aGgcL3iZnus26SRvjlrYGBgYGBgYGBgYGBgYGBgYGBgYGBgYGBgYGBgYGBgYGBgYGBgYGBgYGBgYGBgYGBgYGBgYGBgYGBgYGBgYGDwV/FfslygfmwPX5YAAAAASUVORK5CYII=;" vertex="1" parent="1">
          <mxGeometry x="1540" y="360" width="214.29" height="120" as="geometry" />
        </mxCell>
        <mxCell id="LUx8euQgHhPjClRerNv8-45" value="&lt;div&gt;ORDINATEUR&lt;/div&gt;&lt;div&gt;OU&lt;/div&gt;&lt;div&gt;VM&lt;br&gt;&lt;/div&gt;" style="whiteSpace=wrap;html=1;aspect=fixed;fillColor=default;strokeColor=#3333FF;strokeWidth=3;" vertex="1" parent="1">
          <mxGeometry x="1980" y="320" width="200" height="200" as="geometry" />
        </mxCell>
        <mxCell id="LUx8euQgHhPjClRerNv8-46" value="" style="endArrow=classic;html=1;rounded=0;entryX=1;entryY=0.5;entryDx=0;entryDy=0;exitX=0;exitY=0.5;exitDx=0;exitDy=0;fillColor=#60a917;strokeColor=#2D7600;strokeWidth=3;" edge="1" parent="1" source="LUx8euQgHhPjClRerNv8-45" target="LUx8euQgHhPjClRerNv8-44">
          <mxGeometry relative="1" as="geometry">
            <mxPoint x="2190" y="510" as="sourcePoint" />
            <mxPoint x="2350" y="510" as="targetPoint" />
          </mxGeometry>
        </mxCell>
        <mxCell id="LUx8euQgHhPjClRerNv8-47" value="1 - Requête API" style="edgeLabel;resizable=0;html=1;align=center;verticalAlign=middle;labelBorderColor=#66CC00;fontSize=16;spacing=6;" connectable="0" vertex="1" parent="LUx8euQgHhPjClRerNv8-46">
          <mxGeometry relative="1" as="geometry" />
        </mxCell>
        <mxCell id="LUx8euQgHhPjClRerNv8-48" value="DATABASE DIGITALOCEAN" style="whiteSpace=wrap;html=1;aspect=fixed;strokeColor=#CC6600;strokeWidth=3;" vertex="1" parent="1">
          <mxGeometry x="2580" y="290" width="260" height="260" as="geometry" />
        </mxCell>
        <mxCell id="LUx8euQgHhPjClRerNv8-49" value="&lt;font style=&quot;font-size: 16px;&quot;&gt;Stockage de l&#39;ordinateur ou de la VM&lt;/font&gt;" style="whiteSpace=wrap;html=1;aspect=fixed;fillColor=default;strokeColor=#CC6600;strokeWidth=3;" vertex="1" parent="1">
          <mxGeometry x="1990" width="180" height="180" as="geometry" />
        </mxCell>
        <mxCell id="LUx8euQgHhPjClRerNv8-50" value="2 - Réponse Requête API&lt;div&gt;Contenant JSON&lt;br&gt;&lt;/div&gt;" style="edgeLabel;resizable=0;html=1;align=center;verticalAlign=middle;labelBorderColor=#66CC00;fontSize=16;spacing=6;" connectable="0" vertex="1" parent="1">
          <mxGeometry x="1790" y="90" as="geometry" />
        </mxCell>
        <mxCell id="LUx8euQgHhPjClRerNv8-51" value="" style="endArrow=classic;html=1;rounded=0;exitX=0.5;exitY=1;exitDx=0;exitDy=0;fillColor=#60a917;strokeColor=#e01b24;strokeWidth=3;entryX=0.5;entryY=0;entryDx=0;entryDy=0;" edge="1" parent="1" source="LUx8euQgHhPjClRerNv8-49" target="LUx8euQgHhPjClRerNv8-45">
          <mxGeometry relative="1" as="geometry">
            <mxPoint x="2096" y="250" as="sourcePoint" />
            <mxPoint x="2040" y="220" as="targetPoint" />
          </mxGeometry>
        </mxCell>
        <mxCell id="LUx8euQgHhPjClRerNv8-52" value="&lt;div&gt;3 - Charge les fichiers JSON dans&lt;/div&gt;&lt;div&gt;les paramêtres d&#39;un executemany&lt;/div&gt;4 - Chargement des infos utiles pour chaque JSON." style="edgeLabel;resizable=0;html=1;align=center;verticalAlign=middle;labelBorderColor=#FF0000;fontSize=16;spacing=6;" connectable="0" vertex="1" parent="LUx8euQgHhPjClRerNv8-51">
          <mxGeometry relative="1" as="geometry" />
        </mxCell>
        <mxCell id="LUx8euQgHhPjClRerNv8-53" value="" style="endArrow=classic;html=1;rounded=0;entryX=0;entryY=0.5;entryDx=0;entryDy=0;exitX=1;exitY=0.5;exitDx=0;exitDy=0;fillColor=#60a917;strokeColor=#FFFF33;strokeWidth=3;" edge="1" parent="1" source="LUx8euQgHhPjClRerNv8-45" target="LUx8euQgHhPjClRerNv8-48">
          <mxGeometry relative="1" as="geometry">
            <mxPoint x="2000" y="440" as="sourcePoint" />
            <mxPoint x="1774" y="440" as="targetPoint" />
          </mxGeometry>
        </mxCell>
        <mxCell id="LUx8euQgHhPjClRerNv8-54" value="&lt;div&gt;5 - Executemany de l&#39;insertion des&lt;/div&gt;&lt;div&gt;&lt;span style=&quot;white-space: pre;&quot;&gt;&#x9;&lt;/span&gt;JSON&lt;/div&gt;&lt;div&gt;6 - Executemany de l&#39;insertion des &lt;br&gt;&lt;/div&gt;&lt;div&gt;infos dans GameStat&lt;br&gt; &lt;/div&gt;" style="edgeLabel;resizable=0;html=1;align=center;verticalAlign=middle;labelBorderColor=#FFFF33;fontSize=16;spacing=6;" connectable="0" vertex="1" parent="LUx8euQgHhPjClRerNv8-53">
          <mxGeometry relative="1" as="geometry" />
        </mxCell>
        <mxCell id="LUx8euQgHhPjClRerNv8-57" value="" style="shape=image;verticalLabelPosition=bottom;labelBackgroundColor=default;verticalAlign=top;aspect=fixed;imageAspect=0;image=data:image/png,iVBORw0KGgoAAAANSUhEUgAAAOEAAADhCAMAAAAJbSJIAAAAkFBMVEX///8AgP8Afv8Ad/8Aev8Adv8AfP8Aef8AdP/h7/+pyv8yjv/l8v/v9v+jyP9dov/b6/+vzv8gif8/lP+Ou/+OuP9np//G3f+ewf/u9P9WoP99sv9Lmv/P4//1+v/W5/+92P8Ag/9tqv+Rvv94sP+z0v8Ab/8zkP8bh/9EmP/B2//P3/8ji/+kxf8Aav+71f+ozcl0AAANdklEQVR4nO1diZbqKBA1LCEucd+XxLXVnnb8/7+bsGQnMSo2eW+4c868PhqBC0UVRYqi0TAwMDAwMDAwMDAwMDAwMDAwMDAwMDAwMPgfouNvNv9s/H7T1d0S5eifJr0zcDBkwNjBw95k4Hu626UG/m1tYYIAsFIAiGD7PPn+01lupxZGGW4pmhCP5k3drXwZ/SOAdiG7BMtz948cye+r85ieIEnQ6o8byMEQFgunBMjp9XW3+Rncn+RHYeNpR3e7q8I/46f5MY7OWHfTq+H4Gj8Kcpnpbv1j+Dv0Kj8K56ibwCOMXx9ADjSstcbxRvA9fgEAHuimUYy+VdUClgLXVlK3z5sIOchaNxU5Wo4afgHQTx2XcXN1BAPTeKmfC6mUYKBvdnUbxYFaggHFYb0oblUTDAR1pJtUEv33zWAeaK+bVgzPqmQmgI0QIQQhu5pVwXPdxCKMHht6G8Ld9Xjotk6n1mG13hFYsrkRwtnoZiYwfiSjCO+O27Tz587GbecxyXpom1m5lgFwN/GlP+x0rw/2cezlL3ORwnvAb3gq+XHz6JQ6W7Dsx7+FaVkTyeVRE91j6WoW6ZfTTYmMAnioUEKzzOWqgcn4KR4BMqq4tdQtcZuxboe4W9z/eFW5FL/YsQTXD7a+CoonofOMkvBGhQVpNorjwobZTzasR4oGUev61CsULvL09FkWdRbWOYiHolahF/TDuqAw0FPf8MooGkHnpY3dYYFGxfr8/XuBIoXdl4rrFExFVMWqfgZXeae/vJocYDnFi9JWP4FO0XLm5ZXWUq65tOmauVw14O3LJS7kg2jr2iKWL9jAO9u5RfZVWZufQlOuZ+BbC0k5wffKfBldaX/b7zkDcguL9OzYLKVC6rwXcuBJtddbkv865LPw3VXkXqpOkZIWP4mmtLfh9s1iN9LZrcVLPElXIODtcneyYomO/ZqVTCe8qWcopGKKqnvT6iBdspH72+XeZbKhxdOXSpPz/taYK53fOwUtfrYhMiEFPwpKlnYd+n0PqilbQiqYho1GTyb++Pcj+2YyrY5uCkqWrk3h77sXUmMB31c0gZcoLXmroOTn0JK2Q/4K5jl8y6SD/H4Y0U0qSyriJ32p/LcUlPwcDhDk4SwUlCzVYUpm+HMYLHt5LFXo9I50DPXtRqmHfAzr807/ffSlDH9/Hn4OUv9Jgy79HKRLby3u06cgt0N/QAB4ZUgdRO2vglXiLHU86xeN+TLku22a9oQ/AqnTAs66m6UQ8v2f2ga3v4CLTEY1LEs/Bl/6+kmDA1wB3q0rwT8PfiXf8ya/0uJn4Tooj0fH0wreW9QqIjqCK/WCHjCUv0Csqe/0CsOCAB0luyPq8QpDqamw6mrvX2AodX7raw1fYDiSh69ojfsqwfMM5wURSNriaRq3ZQLrrDZ4mqHc2GvVpMfkjqKTteXPMnSLAoWhPs9pldTt8F2G7QKGSl73vAilDAujhHW69yoZFkWXWkDnqRJ1DL12cZy3zpwgyhj6xYffbJ0RwsoYdktOpRCt6UDUMHTXJWdmiF6vQgnDOSk5vwY0xGAkoYBh1yo6Z8Gge0X6LsPmCpTys4iOUKgkUt7cswz785/ys4eKwnPewtGBMb6yAuV9wTzoPk3Hn817u7IsZ+EQak+rtGgm0DmO0lh3mnl0xl809V6FY86Brd/qJpjBFKWiFuyh9CnpuzMpYO2yRk3TWr9gElVmSKa/3P7HUMsQ1TBHjVKGqI57wCoZ1pKgSob1JKiQIdTqMRVDGcPa5vpSxBDA2oY/qWGIdvWNK1HC0KmfnY+hgCGyVIRRfwxvMwR1T3z5JkOAr/WdgRxv+RYAn+sfmze5rlOQm20pQ9tZ159fVeQZAgL39XxP/xoyDAN664H+TEkqETMENoGgd/qLwio5btC2bUQgJud9q+7K8yWc1tP96tCa/XFZ5g0MDAwMDAwMDAwMDAwMDDTDi0Nd8ltenVu3fKPoPv+uWlGzHyBT/Olw3K/mH77lsZuIXAKjVarBd4eQ0ti5M0ZO1fe1FwfCr2SQU6uNCaLbUhB/dD+4ldy/BAhak7hH2UclxzluNHKtauQSDcVPZHeZ7RLZ5oFz/VyAVyu7B42iBA0LFrr7Vfxb9i5GnPfw80KYRprhPhMWDJzXMvNWAGdIDz9Gd6HiUPDoB2UxrHMaO4l5Pod/IXRKj5ilGK5F1KVN6+V/fuxqQMawPVmtVtMzEtdNEHEAoOUgVCqEF4iwCAyhYyJ/2ySQZMhzdwN82c+7h57FwzQ/NYqUIQhfLW+OiHGEIhvMZjIulTzvtgpF+hmGB0YJjkL9cuI3Cn4ovzxjGOtDb8pqx0+nQ3qCIT9l6CRj1JfkgVJ7AxmGjcaEVoak75u9zaywmyUM+76fsKYxQ5baNZPzu4dyn7nNrH71+n4/ZzvTtcSfRk/mGIoTVvSv+Xk0akexA61zYNEwOnqnYbt9oY1x2zRQNvhjPeJnI9vt9lAojNOa4ED5XI7NRLGMIUt8mruZg6VdjrXad89ysIOuidia+xXi4L9RMhfPYEQ/cy4T0RnN9XK5PLhTxJ68FzDcUjllhn5CAICiwGZ4PSyy9oHaJXSmuhgAm4rWRdzgBADgeTj9S2jtovPpEUN+XDs7FhtsxaH5nZG40wPAnZisXvzRJey0zS6uhWuOvhO06AdwhQnwUs7Qo79CdIwmKEpf1EzcQsW+ZwyhEM1hwpxShrPkpSPiJo+IIR1uyaFJ9jHvDT8ZJM1VrHeJ4yCAzSluneRjrMRMjinSkzJkdbHDxTFDcSsXIuHxjzTDcAyDNRhchQl47WAdaMc6MmJI57kkfTVNLc0zIos02ohwog6VVHZpFiCQMBvd5uOVrsVPMEThh3cpwykQH8UM91SybGt8P4mrfdIMe+s1m0b7/X4aPO/9IBp/972ZHekT/HxdyJDRl2SB2ISF8SmJLod7i50XIkEHnegfaHSandhageVndOmwwuNsM9vTb+1pxBCA+feWfUiTMUgY0oMirDcjhmz9ZvO45M4lL6WNrC4dEcCDD1jTYJIhb0SeIUtER1VNi9HiynwWiAUVSXoxBOJWmx7yEFkkzsji8tplxiZiyO9OZCsu6MoYHm3R7xFD9vIdCOXALsp7wLBxDc0KHRAmkymGkoTKi5AhfTA6VtlhasV3Er1CO1hceTEKYziYRDZF4WGeTKod4EzGkKZIZWMeMVyC5GkX+v0jhtR4bbffffYwS9QVMmRZdEneJWRSehHfO2lTeGALL39D4dMExjD08jyf1UInCc3wwhiGyb+pLJKTjCFtC5okGQ7DZjLQxJ6PGG6WiLmc1s7KMGRjIMk3cxOahmZRyiZNYk4MCL1YS6j64NklSdQiGEbhZrRfggfzDFmGYEYsYkgLiA8c0wSjDxgek4o8w5D2t50/stUWckITtGaPb6+zR2y4tZmmawkZht0zLmLIcsDCZpIhzWwU5xe5PxzDY/pQV5ohuxYjl/n4O7T4LQlDtmJKBs2x686mmVoqM6QDBlhjI4a0hjhVNxv9MobMUgGIg4UXyTPkijm7+cHSQ9H1EV1SZc9vL5nymcboncSNbwBDENZSlSFbA5NuiiHT0FGtl0e6lBYNzlSqm4NLjiFPlJQ51XRln9G6UspCgNafyyvIGnXltTzB0Fty77uRYjhjIiQGcUyKGIY2gHY5FIvHa1aXCrsQ2Oq4sS5LNyBURNzDjAfdQqBWNW6ke4hLFjr3BzxgGHrA/kosdr7TDPkyAx4CHb9ga4U8Q5xQRkx3Cw+znWco7rdGO7God8d8nSR+zs5thnd+jbFDF0nMGRDpL5s7h+kpOnWgsDq7B2PIdzH2Z0vsYoTOacyQ38SJ0G4nFqY5hszn2s1PrQ1X7mBJK9/yrskwbPBesiBYr8bHM+KbYeFVdDzLLmoFv+/TZRtuCdaQemKdebBapYtfJin2NHjKuw/BI4ZsJyr0HuJtr4RvccjsjeUY8hOziFBnia27APwZcuOVZ9iYihUyiKuNt2n48XwCdzYO98KYv2PZGCJ+svZrGxhQOlts2L6EtZQyjAFgOzILCYYBxdD22LaMYV90AbNUu7SrlWfYOGQudbTthCI5Jn0gYFF536TcIiZkHt8cjP5XiSFATjvhVScZNvyrQ4KRJs6eWYtbhmFj7tgRw74QvGCujSTzkBX3k+BoO9PUMi7uTgu2ueX0AYqf5m3ahDfRiloKGN6+sAAEl143FRS5ohvxMePOaTwZnxbMZDPi7ldyk3TT2wHofDEr4E4hRAiiY2OPEWKKK7erv10jyPoMW/usu+hfg69shPAlqt6bWJg+DtE+XC24S17LqtEL/qVHrfv/YuyEfT4JqH3dGt4ihJtbDXsL112EHkXciGW0Sg2+dxepHyzC591797alaiB4xJU9Sx+ftQ7jw0ka5N0cjPerbvqrTWs87qbe4yyCWr5TtVAkWrOo/NanD3dhz3EP5e+KzQ5Y2Ra48FFkHrDWtDifQPOLqiGnNzgN9kxB1OZOcGXgJhqEO1Gw5geUXsEqafFhDU+Sv4+tFe2+4onuxnwIrRF0qLWZ/M0HCTrNv5mdgYGBgYGBgYGBgYGBgYGBgYGBgYGBgYHBZ/EfnhzU2HzbFx0AAAAASUVORK5CYII=;" vertex="1" parent="1">
          <mxGeometry x="2597.5" y="307.5" width="225" height="225" as="geometry" />
        </mxCell>
        <mxCell id="LUx8euQgHhPjClRerNv8-58" value="&lt;div style=&quot;font-size: 16px;&quot;&gt;&lt;font style=&quot;font-size: 16px;&quot; color=&quot;#66cc00&quot;&gt;TEMPS 1- 2 : Requêtes API&lt;br&gt;&lt;/font&gt;&lt;/div&gt;&lt;div style=&quot;font-size: 16px;&quot;&gt;&lt;font style=&quot;font-size: 16px;&quot; color=&quot;#66cc00&quot;&gt;nbr de requêtes * temps d&#39;aller retour de l&#39;information&lt;/font&gt;&lt;/div&gt;&lt;div style=&quot;font-size: 16px;&quot;&gt;&lt;font style=&quot;font-size: 16px;&quot; color=&quot;#66cc00&quot;&gt;+ temps attente, pas de dépassement&lt;br&gt;&lt;/font&gt;&lt;/div&gt;" style="rounded=1;whiteSpace=wrap;html=1;fillColor=none;fontColor=#ffffff;strokeColor=#2D7600;strokeWidth=3;" vertex="1" parent="1">
          <mxGeometry x="1330" y="725" width="240" height="120" as="geometry" />
        </mxCell>
        <mxCell id="LUx8euQgHhPjClRerNv8-59" value="&lt;div style=&quot;font-size: 16px;&quot;&gt;&lt;font style=&quot;font-size: 16px;&quot; color=&quot;#ff0000&quot;&gt;TEMPS 3 : Chargement JSON&lt;br&gt;&lt;/font&gt;&lt;/div&gt;&lt;div style=&quot;font-size: 16px;&quot;&gt;&lt;font style=&quot;font-size: 16px;&quot; color=&quot;#ff0000&quot;&gt;Négligeable.&lt;/font&gt;&lt;font color=&quot;#ff0000&quot;&gt;&lt;br&gt;&lt;/font&gt;&lt;/div&gt;" style="rounded=1;whiteSpace=wrap;html=1;fillColor=none;fontColor=#ffffff;strokeColor=#FF0000;strokeWidth=3;" vertex="1" parent="1">
          <mxGeometry x="1650" y="740" width="200" height="90" as="geometry" />
        </mxCell>
        <mxCell id="LUx8euQgHhPjClRerNv8-60" value="&lt;div&gt;&lt;font style=&quot;font-size: 16px;&quot; color=&quot;#ffff33&quot;&gt;Temps 5 &amp;amp; 6 : Executemany de l&#39;insertion des JSON&lt;/font&gt;&lt;/div&gt;&lt;div&gt;&lt;font style=&quot;font-size: 16px;&quot; color=&quot;#ffff33&quot;&gt;2 * temps aller des infos &lt;br&gt;&lt;/font&gt;&lt;/div&gt;&lt;div&gt;&lt;font style=&quot;font-size: 16px;&quot; color=&quot;#ffff33&quot;&gt;+ temps d&#39;insertion des JSON (négligeable).&lt;br&gt;&lt;/font&gt;&lt;/div&gt;" style="rounded=1;whiteSpace=wrap;html=1;fillColor=none;fontColor=#ffffff;strokeColor=#FFFF33;strokeWidth=3;" vertex="1" parent="1">
          <mxGeometry x="2240" y="715" width="256" height="120" as="geometry" />
        </mxCell>
        <mxCell id="LUx8euQgHhPjClRerNv8-62" value="" style="shape=cross;whiteSpace=wrap;html=1;strokeColor=#0000FF;fillColor=#3333FF;" vertex="1" parent="1">
          <mxGeometry x="1580" y="760" width="50" height="50" as="geometry" />
        </mxCell>
        <mxCell id="LUx8euQgHhPjClRerNv8-64" value="" style="shape=cross;whiteSpace=wrap;html=1;strokeColor=#0000FF;fillColor=#3333FF;" vertex="1" parent="1">
          <mxGeometry x="2160" y="755" width="50" height="50" as="geometry" />
        </mxCell>
        <mxCell id="LUx8euQgHhPjClRerNv8-65" value="" style="shape=cross;whiteSpace=wrap;html=1;strokeColor=#0000FF;fillColor=#3333FF;" vertex="1" parent="1">
          <mxGeometry x="1860" y="755" width="50" height="50" as="geometry" />
        </mxCell>
        <mxCell id="LUx8euQgHhPjClRerNv8-66" value="&lt;div style=&quot;font-size: 16px;&quot;&gt;&lt;font style=&quot;font-size: 16px;&quot; color=&quot;#ff0000&quot;&gt;TEMPS 4 : Chargement info JSON utiles&lt;br&gt;&lt;/font&gt;&lt;/div&gt;&lt;div style=&quot;font-size: 16px;&quot;&gt;&lt;font style=&quot;font-size: 16px;&quot; color=&quot;#ff0000&quot;&gt;Négligeable.&lt;/font&gt;&lt;font color=&quot;#ff0000&quot;&gt;&lt;br&gt;&lt;/font&gt;&lt;/div&gt;" style="rounded=1;whiteSpace=wrap;html=1;fillColor=none;fontColor=#ffffff;strokeColor=#FF0000;strokeWidth=3;" vertex="1" parent="1">
          <mxGeometry x="1940" y="740" width="200" height="90" as="geometry" />
        </mxCell>
        <mxCell id="LUx8euQgHhPjClRerNv8-69" value="&lt;div style=&quot;font-size: 16px;&quot;&gt;&lt;font style=&quot;font-size: 16px;&quot;&gt;Soit n le nombre de Match que l&#39;on cherche à stocker et à extraire : &lt;br&gt;&lt;/font&gt;&lt;/div&gt;&lt;div style=&quot;font-size: 16px;&quot;&gt;&lt;font style=&quot;font-size: 16px;&quot;&gt;&lt;br&gt;&lt;/font&gt;&lt;/div&gt;&lt;div style=&quot;font-size: 16px;&quot;&gt;&lt;font style=&quot;font-size: 16px;&quot;&gt;Alors C = n * aller_retour_ApiRiot + temps_attente + 2 aller_retour_DigitalOcean = &lt;font style=&quot;font-size: 16px;&quot; color=&quot;#ff0000&quot;&gt;2 * aller_retour_DigitalOcean + n * aller_retour_APIRiot + temps_attente&lt;/font&gt;&lt;font style=&quot;font-size: 16px;&quot;&gt;&lt;br&gt;&lt;/font&gt;&lt;/font&gt;&lt;/div&gt;" style="rounded=0;whiteSpace=wrap;html=1;" vertex="1" parent="1">
          <mxGeometry x="1330" y="860" width="1800" height="100" as="geometry" />
        </mxCell>
        <mxCell id="LUx8euQgHhPjClRerNv8-71" value="&lt;font style=&quot;font-size: 16px;&quot;&gt;Schéma Actuel des étapes suivi pour l&#39;insertion des JSON et l&#39;extraction des données du JSON&lt;br&gt;&lt;/font&gt;" style="rounded=0;whiteSpace=wrap;html=1;" vertex="1" parent="1">
          <mxGeometry x="-135" y="-70" width="800" height="60" as="geometry" />
        </mxCell>
        <mxCell id="LUx8euQgHhPjClRerNv8-72" value="&lt;font style=&quot;font-size: 16px;&quot;&gt;Schéma d&#39;une meilleure manière de faire de l&#39;extraction des données du JSON et de l&#39;insertion des JSON.&lt;br&gt;&lt;/font&gt;" style="rounded=0;whiteSpace=wrap;html=1;" vertex="1" parent="1">
          <mxGeometry x="1715" y="-70" width="920" height="60" as="geometry" />
        </mxCell>
      </root>
    </mxGraphModel>
  </diagram>
</mxfile>
